<svg width="203" height="88" viewBox="0 0 203 88" fill="none" xmlns="http://www.w3.org/2000/svg">
<path d="M2.36133 42.8363C2.36133 19.1583 21.5196 0 45.1639 0C68.842 0 88.0003 19.1583 88.0003 42.8363C88.0003 44.2867 87.9665 45.7708 87.7979 47.2211C82.9409 66.2108 65.7051 80.276 45.1639 80.276C24.6565 80.276 7.45447 66.2108 2.59743 47.2211C2.39506 45.7708 2.36133 44.3204 2.36133 42.8363Z" fill="#F4A000"/>
<path fill-rule="evenodd" clip-rule="evenodd" d="M41.5883 53.8321L39.5646 51.8083C35.5171 50.5603 31.2334 49.8858 26.8149 49.7846L41.1836 64.1196L41.5883 53.8321ZM31.4021 43.6458L22.2951 34.5389C19.7654 34.2353 17.2357 34.0667 14.6048 34.0667C9.78152 34.0667 5.09314 34.5726 0.640859 35.652C0.775777 34.8087 0.944423 33.9318 1.11307 33.1223C8.49981 29.3108 16.7635 26.9498 25.5332 26.3764L27.793 28.7037L30.8961 31.7731C37.4734 28.6362 44.8264 26.8823 52.5841 26.8823C52.1456 26.3426 51.7409 25.7355 51.3024 25.1621C49.852 25.0947 48.368 24.9935 46.8839 24.9935C41.8245 24.9935 36.9 25.7355 32.3128 27.1521L29.5132 24.3526C27.5906 24.184 25.6006 24.049 23.5768 24.049C16.3588 23.9141 9.34304 25.0272 2.83327 27.2196C3.17056 26.3089 3.54159 25.4994 3.87888 24.6224C9.07321 20.8448 14.8409 17.8766 21.0134 15.8528L19.7317 14.5374C27.3208 10.6247 36.023 8.46606 45.1637 8.46606C50.6278 8.46606 55.8559 9.20811 60.8478 10.6585C62.6692 12.4461 64.3894 14.4024 65.9747 16.4262C66.4806 16.0215 67.054 15.6842 67.6612 15.3131C74.4745 17.3369 80.8494 20.5075 86.5159 24.6224C86.8532 25.4994 87.2242 26.3089 87.5615 27.2196C82.2997 25.4657 76.7681 24.3863 71.0678 24.0828C71.675 25.1959 72.2821 26.2752 72.788 27.422C78.6232 28.5351 84.1886 30.4576 89.2817 33.1223C89.4504 33.9318 89.619 34.8087 89.7539 35.652C85.2342 34.5726 80.6133 34.0667 75.7899 34.0667H75.5201C75.8911 35.146 76.2622 36.2254 76.5995 37.3384C81.3553 38.1479 85.9762 39.5308 90.2599 41.386C90.2936 41.8582 90.2936 42.2967 90.2936 42.7689V43.2073C88.0675 42.9375 85.7739 42.8363 83.4465 42.8363C78.9605 42.8363 74.6432 43.3085 70.427 44.2192C69.0441 43.3085 67.6274 42.4316 66.1771 41.5883L57.6773 50.1219L49.0763 58.7229L49.8858 79.8712C48.3342 80.0398 46.7827 80.141 45.1637 80.141C43.6121 80.141 42.0268 80.0398 40.5427 79.8712L40.9138 70.9329L41.0487 67.5262L23.307 49.8183L22.9697 49.852C19.7654 50.0207 16.5949 50.4929 13.5929 51.2349C13.2557 50.5604 12.9521 49.852 12.6823 49.1437C14.8747 47.9969 17.202 46.9513 19.5968 46.1418L17.1345 43.6796C16.3588 43.5446 15.583 43.4097 14.8072 43.3423C13.964 43.2073 13.0533 43.1399 12.1763 43.0387C10.4224 42.9038 8.66845 42.8363 6.84707 42.8363C4.51974 42.8363 2.25987 42.9712 0 43.2073V42.7689C0 42.2967 1.28165e-07 41.8582 0.0337295 41.386C6.23994 38.7213 12.9858 37.1023 20.069 36.6301L27.5906 44.1518C28.9061 43.9157 30.1541 43.747 31.4021 43.6458ZM50.8302 36.7988L59.1614 45.0962L63.8835 40.3741C59.6673 38.3166 55.0801 36.8999 50.2568 36.2591L50.8302 36.7988ZM57.4074 46.8501L45.1974 34.6401L44.5565 34.033C39.6995 35.146 35.1123 37.1361 30.9636 39.6995L34.8762 43.6121C36.7313 43.4435 38.6202 43.5109 40.4078 43.6796C41.0824 45.9057 41.5546 48.1993 41.9256 50.5604L47.7271 56.4293L57.4074 46.8501Z" fill="#231815"/>
<path d="M2.69865 47.0525C7.52195 66.0421 24.6902 80.1073 45.164 80.1073C65.6714 80.1073 82.8397 66.0421 87.663 47.0525C88.5062 46.9175 89.3832 46.8501 90.1927 46.7489C88.2027 69.8535 68.842 88 45.164 88C21.5197 88 2.15898 69.8535 0.168945 46.7489C0.978451 46.8501 1.85542 46.9175 2.69865 47.0525Z" fill="#009EA7"/>
<path d="M192.325 43.2748C192.325 41.3523 190.942 40.138 188.614 40.138H183.42V46.4117H188.614C190.975 46.4117 192.325 45.1974 192.325 43.2748ZM194.989 55.8559C194.989 53.6972 193.303 52.1119 190.436 52.1119H183.386V59.6673H190.436C193.336 59.6673 194.989 58.1495 194.989 55.8559ZM199.779 42.3304C199.779 44.7252 198.733 46.9176 196.642 48.4017L196.069 48.8065L196.743 49.0763C200.622 50.4592 202.443 53.4611 202.443 56.834C202.443 61.5899 198.666 65.6037 190.807 65.6037H176.168V34.2354H188.985C196.372 34.2354 199.779 37.9456 199.779 42.3304ZM119.806 65.6037H112.251V42.3304C112.251 37.9456 115.658 34.2354 123.044 34.2354H137.919L137.885 40.138H123.382C121.425 40.138 120.177 40.9475 119.773 42.3304V46.7827H136.334V53.3262H119.806V65.6037ZM169.591 65.6037C167.635 65.6037 165.847 64.7942 164.532 63.5462L154.716 53.7647L149.826 48.8402C148.544 47.5922 147.566 46.243 147.566 46.243L147.228 46.3442V65.6037H140.246V34.2354H142.574C144.53 34.2354 146.318 35.0449 147.633 36.3266L157.415 46.1081L162.339 51.0326C163.587 52.2806 164.633 53.6298 164.633 53.6298L164.903 53.5623L164.97 34.2691H171.952V65.6374H169.591V65.6037Z" fill="#009EA7"/>
</svg>
