<svg width="10" height="10" viewBox="0 0 10 10" fill="none" xmlns="http://www.w3.org/2000/svg">
<g clip-path="url(#clip0_280_2830)">
<path d="M9.84375 5C9.84375 7.67572 7.67494 9.84375 5 9.84375C2.32506 9.84375 0.15625 7.67572 0.15625 5C0.15625 2.32584 2.32506 0.15625 5 0.15625C7.67494 0.15625 9.84375 2.32584 9.84375 5ZM5 5.97656C4.50381 5.97656 4.10156 6.37881 4.10156 6.875C4.10156 7.37119 4.50381 7.77344 5 7.77344C5.49619 7.77344 5.89844 7.37119 5.89844 6.875C5.89844 6.37881 5.49619 5.97656 5 5.97656ZM4.14701 2.74715L4.29189 5.4034C4.29867 5.5277 4.40145 5.625 4.52592 5.625H5.47408C5.59856 5.625 5.70133 5.5277 5.70811 5.4034L5.85299 2.74715C5.86031 2.61289 5.75342 2.5 5.61897 2.5H4.38102C4.24656 2.5 4.13969 2.61289 4.14701 2.74715Z" fill="#FF000D"/>
</g>
<defs>
<clipPath id="clip0_280_2830">
<rect width="10" height="10" fill="white"/>
</clipPath>
</defs>
</svg>
