<svg width="128" height="112" viewBox="0 0 128 112" fill="none" xmlns="http://www.w3.org/2000/svg">
<path d="M64 46.832L7.632 0.848C8.992 0.32 10.456 0 12 0H116C117.544 0 119.008 0.32 120.368 0.848L64 46.832ZM126.448 6.208L66.528 55.096C65.792 55.696 64.896 56 64 56C63.104 56 62.208 55.696 61.472 55.096L1.552 6.208C0.592 7.936 0 9.888 0 12V84C0 90.616 5.384 96 12 96H66.216C64.864 92.232 64 88.224 64 84C64 64.152 80.152 48 100 48C111.368 48 121.4 53.4 128 61.656V12C128 9.888 127.408 7.936 126.448 6.208ZM128 84C128 99.44 115.44 112 100 112C84.56 112 72 99.44 72 84C72 68.56 84.56 56 100 56C115.44 56 128 68.56 128 84ZM112.832 75.168C111.272 73.608 108.736 73.608 107.176 75.168L96 86.344L92.832 83.176C91.272 81.616 88.736 81.616 87.176 83.176C85.616 84.736 85.616 87.272 87.176 88.832L93.176 94.832C93.952 95.608 94.976 96 96 96C97.024 96 98.048 95.608 98.832 94.832L112.832 80.832C114.392 79.264 114.392 76.736 112.832 75.168Z" fill="#5562B0"/>
</svg>
